<svg width="180" height="181" viewBox="0 0 180 181" fill="none" xmlns="http://www.w3.org/2000/svg">
<g clip-path="url(#clip0_75_214)">
<path d="M4.36902e-05 1.46514C0.533071 1.46514 0.965175 1.03304 0.965175 0.500013C0.965175 -0.0330143 0.533071 -0.465118 4.36902e-05 -0.465118C-0.532984 -0.465118 -0.965088 -0.0330143 -0.965088 0.500013C-0.965088 1.03304 -0.532984 1.46514 4.36902e-05 1.46514Z" fill="#4F279B"/>
<path d="M15 1.46514C15.5331 1.46514 15.9652 1.03304 15.9652 0.500013C15.9652 -0.0330143 15.5331 -0.465118 15 -0.465118C14.467 -0.465118 14.0349 -0.0330143 14.0349 0.500013C14.0349 1.03304 14.467 1.46514 15 1.46514Z" fill="#4F279B"/>
<path d="M30 1.46514C30.5331 1.46514 30.9652 1.03304 30.9652 0.500013C30.9652 -0.0330143 30.5331 -0.465118 30 -0.465118C29.467 -0.465118 29.0349 -0.0330143 29.0349 0.500013C29.0349 1.03304 29.467 1.46514 30 1.46514Z" fill="#4F279B"/>
<path d="M45 1.46514C45.5331 1.46514 45.9652 1.03304 45.9652 0.500013C45.9652 -0.0330143 45.5331 -0.465118 45 -0.465118C44.467 -0.465118 44.0349 -0.0330143 44.0349 0.500013C44.0349 1.03304 44.467 1.46514 45 1.46514Z" fill="#4F279B"/>
<path d="M60 1.46514C60.5331 1.46514 60.9652 1.03304 60.9652 0.500013C60.9652 -0.0330143 60.5331 -0.465118 60 -0.465118C59.467 -0.465118 59.0349 -0.0330143 59.0349 0.500013C59.0349 1.03304 59.467 1.46514 60 1.46514Z" fill="#4F279B"/>
<path d="M75 1.46514C75.5331 1.46514 75.9652 1.03304 75.9652 0.500013C75.9652 -0.0330143 75.5331 -0.465118 75 -0.465118C74.467 -0.465118 74.0349 -0.0330143 74.0349 0.500013C74.0349 1.03304 74.467 1.46514 75 1.46514Z" fill="#4F279B"/>
<path d="M90 1.46514C90.5331 1.46514 90.9652 1.03304 90.9652 0.500013C90.9652 -0.0330143 90.5331 -0.465118 90 -0.465118C89.467 -0.465118 89.0349 -0.0330143 89.0349 0.500013C89.0349 1.03304 89.467 1.46514 90 1.46514Z" fill="#4F279B"/>
<path d="M105 1.46514C105.533 1.46514 105.965 1.03304 105.965 0.500013C105.965 -0.0330143 105.533 -0.465118 105 -0.465118C104.467 -0.465118 104.035 -0.0330143 104.035 0.500013C104.035 1.03304 104.467 1.46514 105 1.46514Z" fill="#4F279B"/>
<path d="M120 1.46514C120.533 1.46514 120.965 1.03304 120.965 0.500013C120.965 -0.0330143 120.533 -0.465118 120 -0.465118C119.467 -0.465118 119.035 -0.0330143 119.035 0.500013C119.035 1.03304 119.467 1.46514 120 1.46514Z" fill="#4F279B"/>
<path d="M135 1.46514C135.533 1.46514 135.965 1.03304 135.965 0.500013C135.965 -0.0330143 135.533 -0.465118 135 -0.465118C134.467 -0.465118 134.035 -0.0330143 134.035 0.500013C134.035 1.03304 134.467 1.46514 135 1.46514Z" fill="#4F279B"/>
<path d="M150 1.46514C150.533 1.46514 150.965 1.03304 150.965 0.500013C150.965 -0.0330143 150.533 -0.465118 150 -0.465118C149.467 -0.465118 149.035 -0.0330143 149.035 0.500013C149.035 1.03304 149.467 1.46514 150 1.46514Z" fill="#4F279B"/>
<path d="M165 1.46514C165.533 1.46514 165.965 1.03304 165.965 0.500013C165.965 -0.0330143 165.533 -0.465118 165 -0.465118C164.467 -0.465118 164.035 -0.0330143 164.035 0.500013C164.035 1.03304 164.467 1.46514 165 1.46514Z" fill="#4F279B"/>
<path d="M180 1.46514C180.533 1.46514 180.965 1.03304 180.965 0.500013C180.965 -0.0330143 180.533 -0.465118 180 -0.465118C179.467 -0.465118 179.035 -0.0330143 179.035 0.500013C179.035 1.03304 179.467 1.46514 180 1.46514Z" fill="#4F279B"/>
<path d="M4.36902e-05 16.4651C0.533071 16.4651 0.965175 16.033 0.965175 15.5C0.965175 14.967 0.533071 14.5349 4.36902e-05 14.5349C-0.532984 14.5349 -0.965088 14.967 -0.965088 15.5C-0.965088 16.033 -0.532984 16.4651 4.36902e-05 16.4651Z" fill="#4F279B"/>
<path d="M15 16.4651C15.5331 16.4651 15.9652 16.033 15.9652 15.5C15.9652 14.967 15.5331 14.5349 15 14.5349C14.467 14.5349 14.0349 14.967 14.0349 15.5C14.0349 16.033 14.467 16.4651 15 16.4651Z" fill="#4F279B"/>
<path d="M30 16.4651C30.5331 16.4651 30.9652 16.033 30.9652 15.5C30.9652 14.967 30.5331 14.5349 30 14.5349C29.467 14.5349 29.0349 14.967 29.0349 15.5C29.0349 16.033 29.467 16.4651 30 16.4651Z" fill="#4F279B"/>
<path d="M45 16.4651C45.5331 16.4651 45.9652 16.033 45.9652 15.5C45.9652 14.967 45.5331 14.5349 45 14.5349C44.467 14.5349 44.0349 14.967 44.0349 15.5C44.0349 16.033 44.467 16.4651 45 16.4651Z" fill="#4F279B"/>
<path d="M60 16.4651C60.5331 16.4651 60.9652 16.033 60.9652 15.5C60.9652 14.967 60.5331 14.5349 60 14.5349C59.467 14.5349 59.0349 14.967 59.0349 15.5C59.0349 16.033 59.467 16.4651 60 16.4651Z" fill="#4F279B"/>
<path d="M75 16.4651C75.5331 16.4651 75.9652 16.033 75.9652 15.5C75.9652 14.967 75.5331 14.5349 75 14.5349C74.467 14.5349 74.0349 14.967 74.0349 15.5C74.0349 16.033 74.467 16.4651 75 16.4651Z" fill="#4F279B"/>
<path d="M90 16.4651C90.5331 16.4651 90.9652 16.033 90.9652 15.5C90.9652 14.967 90.5331 14.5349 90 14.5349C89.467 14.5349 89.0349 14.967 89.0349 15.5C89.0349 16.033 89.467 16.4651 90 16.4651Z" fill="#4F279B"/>
<path d="M105 16.4651C105.533 16.4651 105.965 16.033 105.965 15.5C105.965 14.967 105.533 14.5349 105 14.5349C104.467 14.5349 104.035 14.967 104.035 15.5C104.035 16.033 104.467 16.4651 105 16.4651Z" fill="#4F279B"/>
<path d="M120 16.4651C120.533 16.4651 120.965 16.033 120.965 15.5C120.965 14.967 120.533 14.5349 120 14.5349C119.467 14.5349 119.035 14.967 119.035 15.5C119.035 16.033 119.467 16.4651 120 16.4651Z" fill="#4F279B"/>
<path d="M135 16.4651C135.533 16.4651 135.965 16.033 135.965 15.5C135.965 14.967 135.533 14.5349 135 14.5349C134.467 14.5349 134.035 14.967 134.035 15.5C134.035 16.033 134.467 16.4651 135 16.4651Z" fill="#4F279B"/>
<path d="M150 16.4651C150.533 16.4651 150.965 16.033 150.965 15.5C150.965 14.967 150.533 14.5349 150 14.5349C149.467 14.5349 149.035 14.967 149.035 15.5C149.035 16.033 149.467 16.4651 150 16.4651Z" fill="#4F279B"/>
<path d="M165 16.4651C165.533 16.4651 165.965 16.033 165.965 15.5C165.965 14.967 165.533 14.5349 165 14.5349C164.467 14.5349 164.035 14.967 164.035 15.5C164.035 16.033 164.467 16.4651 165 16.4651Z" fill="#4F279B"/>
<path d="M180 16.4651C180.533 16.4651 180.965 16.033 180.965 15.5C180.965 14.967 180.533 14.5349 180 14.5349C179.467 14.5349 179.035 14.967 179.035 15.5C179.035 16.033 179.467 16.4651 180 16.4651Z" fill="#4F279B"/>
<path d="M4.36902e-05 31.4651C0.533071 31.4651 0.965175 31.033 0.965175 30.5C0.965175 29.967 0.533071 29.5349 4.36902e-05 29.5349C-0.532984 29.5349 -0.965088 29.967 -0.965088 30.5C-0.965088 31.033 -0.532984 31.4651 4.36902e-05 31.4651Z" fill="#4F279B"/>
<path d="M15 31.4651C15.5331 31.4651 15.9652 31.033 15.9652 30.5C15.9652 29.967 15.5331 29.5349 15 29.5349C14.467 29.5349 14.0349 29.967 14.0349 30.5C14.0349 31.033 14.467 31.4651 15 31.4651Z" fill="#4F279B"/>
<path d="M30 31.4651C30.5331 31.4651 30.9652 31.033 30.9652 30.5C30.9652 29.967 30.5331 29.5349 30 29.5349C29.467 29.5349 29.0349 29.967 29.0349 30.5C29.0349 31.033 29.467 31.4651 30 31.4651Z" fill="#4F279B"/>
<path d="M45 31.4651C45.5331 31.4651 45.9652 31.033 45.9652 30.5C45.9652 29.967 45.5331 29.5349 45 29.5349C44.467 29.5349 44.0349 29.967 44.0349 30.5C44.0349 31.033 44.467 31.4651 45 31.4651Z" fill="#4F279B"/>
<path d="M60 31.4651C60.5331 31.4651 60.9652 31.033 60.9652 30.5C60.9652 29.967 60.5331 29.5349 60 29.5349C59.467 29.5349 59.0349 29.967 59.0349 30.5C59.0349 31.033 59.467 31.4651 60 31.4651Z" fill="#4F279B"/>
<path d="M75 31.4651C75.5331 31.4651 75.9652 31.033 75.9652 30.5C75.9652 29.967 75.5331 29.5349 75 29.5349C74.467 29.5349 74.0349 29.967 74.0349 30.5C74.0349 31.033 74.467 31.4651 75 31.4651Z" fill="#4F279B"/>
<path d="M90 31.4651C90.5331 31.4651 90.9652 31.033 90.9652 30.5C90.9652 29.967 90.5331 29.5349 90 29.5349C89.467 29.5349 89.0349 29.967 89.0349 30.5C89.0349 31.033 89.467 31.4651 90 31.4651Z" fill="#4F279B"/>
<path d="M105 31.4651C105.533 31.4651 105.965 31.033 105.965 30.5C105.965 29.967 105.533 29.5349 105 29.5349C104.467 29.5349 104.035 29.967 104.035 30.5C104.035 31.033 104.467 31.4651 105 31.4651Z" fill="#4F279B"/>
<path d="M120 31.4651C120.533 31.4651 120.965 31.033 120.965 30.5C120.965 29.967 120.533 29.5349 120 29.5349C119.467 29.5349 119.035 29.967 119.035 30.5C119.035 31.033 119.467 31.4651 120 31.4651Z" fill="#4F279B"/>
<path d="M135 31.4651C135.533 31.4651 135.965 31.033 135.965 30.5C135.965 29.967 135.533 29.5349 135 29.5349C134.467 29.5349 134.035 29.967 134.035 30.5C134.035 31.033 134.467 31.4651 135 31.4651Z" fill="#4F279B"/>
<path d="M150 31.4651C150.533 31.4651 150.965 31.033 150.965 30.5C150.965 29.967 150.533 29.5349 150 29.5349C149.467 29.5349 149.035 29.967 149.035 30.5C149.035 31.033 149.467 31.4651 150 31.4651Z" fill="#4F279B"/>
<path d="M165 31.4651C165.533 31.4651 165.965 31.033 165.965 30.5C165.965 29.967 165.533 29.5349 165 29.5349C164.467 29.5349 164.035 29.967 164.035 30.5C164.035 31.033 164.467 31.4651 165 31.4651Z" fill="#4F279B"/>
<path d="M180 31.4651C180.533 31.4651 180.965 31.033 180.965 30.5C180.965 29.967 180.533 29.5349 180 29.5349C179.467 29.5349 179.035 29.967 179.035 30.5C179.035 31.033 179.467 31.4651 180 31.4651Z" fill="#4F279B"/>
<path d="M4.36902e-05 46.4652C0.533071 46.4652 0.965175 46.0331 0.965175 45.5C0.965175 44.967 0.533071 44.5349 4.36902e-05 44.5349C-0.532984 44.5349 -0.965088 44.967 -0.965088 45.5C-0.965088 46.0331 -0.532984 46.4652 4.36902e-05 46.4652Z" fill="#4F279B"/>
<path d="M15 46.4652C15.5331 46.4652 15.9652 46.0331 15.9652 45.5C15.9652 44.967 15.5331 44.5349 15 44.5349C14.467 44.5349 14.0349 44.967 14.0349 45.5C14.0349 46.0331 14.467 46.4652 15 46.4652Z" fill="#4F279B"/>
<path d="M30 46.4652C30.5331 46.4652 30.9652 46.0331 30.9652 45.5C30.9652 44.967 30.5331 44.5349 30 44.5349C29.467 44.5349 29.0349 44.967 29.0349 45.5C29.0349 46.0331 29.467 46.4652 30 46.4652Z" fill="#4F279B"/>
<path d="M45 46.4652C45.5331 46.4652 45.9652 46.0331 45.9652 45.5C45.9652 44.967 45.5331 44.5349 45 44.5349C44.467 44.5349 44.0349 44.967 44.0349 45.5C44.0349 46.0331 44.467 46.4652 45 46.4652Z" fill="#4F279B"/>
<path d="M60 46.4652C60.5331 46.4652 60.9652 46.0331 60.9652 45.5C60.9652 44.967 60.5331 44.5349 60 44.5349C59.467 44.5349 59.0349 44.967 59.0349 45.5C59.0349 46.0331 59.467 46.4652 60 46.4652Z" fill="#4F279B"/>
<path d="M75 46.4652C75.5331 46.4652 75.9652 46.0331 75.9652 45.5C75.9652 44.967 75.5331 44.5349 75 44.5349C74.467 44.5349 74.0349 44.967 74.0349 45.5C74.0349 46.0331 74.467 46.4652 75 46.4652Z" fill="#4F279B"/>
<path d="M90 46.4652C90.5331 46.4652 90.9652 46.0331 90.9652 45.5C90.9652 44.967 90.5331 44.5349 90 44.5349C89.467 44.5349 89.0349 44.967 89.0349 45.5C89.0349 46.0331 89.467 46.4652 90 46.4652Z" fill="#4F279B"/>
<path d="M105 46.4652C105.533 46.4652 105.965 46.0331 105.965 45.5C105.965 44.967 105.533 44.5349 105 44.5349C104.467 44.5349 104.035 44.967 104.035 45.5C104.035 46.0331 104.467 46.4652 105 46.4652Z" fill="#4F279B"/>
<path d="M120 46.4652C120.533 46.4652 120.965 46.0331 120.965 45.5C120.965 44.967 120.533 44.5349 120 44.5349C119.467 44.5349 119.035 44.967 119.035 45.5C119.035 46.0331 119.467 46.4652 120 46.4652Z" fill="#4F279B"/>
<path d="M135 46.4652C135.533 46.4652 135.965 46.0331 135.965 45.5C135.965 44.967 135.533 44.5349 135 44.5349C134.467 44.5349 134.035 44.967 134.035 45.5C134.035 46.0331 134.467 46.4652 135 46.4652Z" fill="#4F279B"/>
<path d="M150 46.4652C150.533 46.4652 150.965 46.0331 150.965 45.5C150.965 44.967 150.533 44.5349 150 44.5349C149.467 44.5349 149.035 44.967 149.035 45.5C149.035 46.0331 149.467 46.4652 150 46.4652Z" fill="#4F279B"/>
<path d="M165 46.4652C165.533 46.4652 165.965 46.0331 165.965 45.5C165.965 44.967 165.533 44.5349 165 44.5349C164.467 44.5349 164.035 44.967 164.035 45.5C164.035 46.0331 164.467 46.4652 165 46.4652Z" fill="#4F279B"/>
<path d="M180 46.4652C180.533 46.4652 180.965 46.0331 180.965 45.5C180.965 44.967 180.533 44.5349 180 44.5349C179.467 44.5349 179.035 44.967 179.035 45.5C179.035 46.0331 179.467 46.4652 180 46.4652Z" fill="#4F279B"/>
<path d="M4.36902e-05 61.4651C0.533071 61.4651 0.965175 61.033 0.965175 60.5C0.965175 59.967 0.533071 59.5349 4.36902e-05 59.5349C-0.532984 59.5349 -0.965088 59.967 -0.965088 60.5C-0.965088 61.033 -0.532984 61.4651 4.36902e-05 61.4651Z" fill="#4F279B"/>
<path d="M15 61.4651C15.5331 61.4651 15.9652 61.033 15.9652 60.5C15.9652 59.967 15.5331 59.5349 15 59.5349C14.467 59.5349 14.0349 59.967 14.0349 60.5C14.0349 61.033 14.467 61.4651 15 61.4651Z" fill="#4F279B"/>
<path d="M30 61.4651C30.5331 61.4651 30.9652 61.033 30.9652 60.5C30.9652 59.967 30.5331 59.5349 30 59.5349C29.467 59.5349 29.0349 59.967 29.0349 60.5C29.0349 61.033 29.467 61.4651 30 61.4651Z" fill="#4F279B"/>
<path d="M45 61.4651C45.5331 61.4651 45.9652 61.033 45.9652 60.5C45.9652 59.967 45.5331 59.5349 45 59.5349C44.467 59.5349 44.0349 59.967 44.0349 60.5C44.0349 61.033 44.467 61.4651 45 61.4651Z" fill="#4F279B"/>
<path d="M60 61.4651C60.5331 61.4651 60.9652 61.033 60.9652 60.5C60.9652 59.967 60.5331 59.5349 60 59.5349C59.467 59.5349 59.0349 59.967 59.0349 60.5C59.0349 61.033 59.467 61.4651 60 61.4651Z" fill="#4F279B"/>
<path d="M75 61.4651C75.5331 61.4651 75.9652 61.033 75.9652 60.5C75.9652 59.967 75.5331 59.5349 75 59.5349C74.467 59.5349 74.0349 59.967 74.0349 60.5C74.0349 61.033 74.467 61.4651 75 61.4651Z" fill="#4F279B"/>
<path d="M90 61.4651C90.5331 61.4651 90.9652 61.033 90.9652 60.5C90.9652 59.967 90.5331 59.5349 90 59.5349C89.467 59.5349 89.0349 59.967 89.0349 60.5C89.0349 61.033 89.467 61.4651 90 61.4651Z" fill="#4F279B"/>
<path d="M105 61.4651C105.533 61.4651 105.965 61.033 105.965 60.5C105.965 59.967 105.533 59.5349 105 59.5349C104.467 59.5349 104.035 59.967 104.035 60.5C104.035 61.033 104.467 61.4651 105 61.4651Z" fill="#4F279B"/>
<path d="M120 61.4651C120.533 61.4651 120.965 61.033 120.965 60.5C120.965 59.967 120.533 59.5349 120 59.5349C119.467 59.5349 119.035 59.967 119.035 60.5C119.035 61.033 119.467 61.4651 120 61.4651Z" fill="#4F279B"/>
<path d="M135 61.4651C135.533 61.4651 135.965 61.033 135.965 60.5C135.965 59.967 135.533 59.5349 135 59.5349C134.467 59.5349 134.035 59.967 134.035 60.5C134.035 61.033 134.467 61.4651 135 61.4651Z" fill="#4F279B"/>
<path d="M150 61.4651C150.533 61.4651 150.965 61.033 150.965 60.5C150.965 59.967 150.533 59.5349 150 59.5349C149.467 59.5349 149.035 59.967 149.035 60.5C149.035 61.033 149.467 61.4651 150 61.4651Z" fill="#4F279B"/>
<path d="M165 61.4651C165.533 61.4651 165.965 61.033 165.965 60.5C165.965 59.967 165.533 59.5349 165 59.5349C164.467 59.5349 164.035 59.967 164.035 60.5C164.035 61.033 164.467 61.4651 165 61.4651Z" fill="#4F279B"/>
<path d="M180 61.4651C180.533 61.4651 180.965 61.033 180.965 60.5C180.965 59.967 180.533 59.5349 180 59.5349C179.467 59.5349 179.035 59.967 179.035 60.5C179.035 61.033 179.467 61.4651 180 61.4651Z" fill="#4F279B"/>
<path d="M4.36902e-05 76.4652C0.533071 76.4652 0.965175 76.0331 0.965175 75.5C0.965175 74.967 0.533071 74.5349 4.36902e-05 74.5349C-0.532984 74.5349 -0.965088 74.967 -0.965088 75.5C-0.965088 76.0331 -0.532984 76.4652 4.36902e-05 76.4652Z" fill="#4F279B"/>
<path d="M15 76.4652C15.5331 76.4652 15.9652 76.0331 15.9652 75.5C15.9652 74.967 15.5331 74.5349 15 74.5349C14.467 74.5349 14.0349 74.967 14.0349 75.5C14.0349 76.0331 14.467 76.4652 15 76.4652Z" fill="#4F279B"/>
<path d="M30 76.4652C30.5331 76.4652 30.9652 76.0331 30.9652 75.5C30.9652 74.967 30.5331 74.5349 30 74.5349C29.467 74.5349 29.0349 74.967 29.0349 75.5C29.0349 76.0331 29.467 76.4652 30 76.4652Z" fill="#4F279B"/>
<path d="M45 76.4652C45.5331 76.4652 45.9652 76.0331 45.9652 75.5C45.9652 74.967 45.5331 74.5349 45 74.5349C44.467 74.5349 44.0349 74.967 44.0349 75.5C44.0349 76.0331 44.467 76.4652 45 76.4652Z" fill="#4F279B"/>
<path d="M60 76.4652C60.5331 76.4652 60.9652 76.0331 60.9652 75.5C60.9652 74.967 60.5331 74.5349 60 74.5349C59.467 74.5349 59.0349 74.967 59.0349 75.5C59.0349 76.0331 59.467 76.4652 60 76.4652Z" fill="#4F279B"/>
<path d="M75 76.4652C75.5331 76.4652 75.9652 76.0331 75.9652 75.5C75.9652 74.967 75.5331 74.5349 75 74.5349C74.467 74.5349 74.0349 74.967 74.0349 75.5C74.0349 76.0331 74.467 76.4652 75 76.4652Z" fill="#4F279B"/>
<path d="M90 76.4652C90.5331 76.4652 90.9652 76.0331 90.9652 75.5C90.9652 74.967 90.5331 74.5349 90 74.5349C89.467 74.5349 89.0349 74.967 89.0349 75.5C89.0349 76.0331 89.467 76.4652 90 76.4652Z" fill="#4F279B"/>
<path d="M105 76.4652C105.533 76.4652 105.965 76.0331 105.965 75.5C105.965 74.967 105.533 74.5349 105 74.5349C104.467 74.5349 104.035 74.967 104.035 75.5C104.035 76.0331 104.467 76.4652 105 76.4652Z" fill="#4F279B"/>
<path d="M120 76.4652C120.533 76.4652 120.965 76.0331 120.965 75.5C120.965 74.967 120.533 74.5349 120 74.5349C119.467 74.5349 119.035 74.967 119.035 75.5C119.035 76.0331 119.467 76.4652 120 76.4652Z" fill="#4F279B"/>
<path d="M135 76.4652C135.533 76.4652 135.965 76.0331 135.965 75.5C135.965 74.967 135.533 74.5349 135 74.5349C134.467 74.5349 134.035 74.967 134.035 75.5C134.035 76.0331 134.467 76.4652 135 76.4652Z" fill="#4F279B"/>
<path d="M150 76.4652C150.533 76.4652 150.965 76.0331 150.965 75.5C150.965 74.967 150.533 74.5349 150 74.5349C149.467 74.5349 149.035 74.967 149.035 75.5C149.035 76.0331 149.467 76.4652 150 76.4652Z" fill="#4F279B"/>
<path d="M165 76.4652C165.533 76.4652 165.965 76.0331 165.965 75.5C165.965 74.967 165.533 74.5349 165 74.5349C164.467 74.5349 164.035 74.967 164.035 75.5C164.035 76.0331 164.467 76.4652 165 76.4652Z" fill="#4F279B"/>
<path d="M180 76.4652C180.533 76.4652 180.965 76.0331 180.965 75.5C180.965 74.967 180.533 74.5349 180 74.5349C179.467 74.5349 179.035 74.967 179.035 75.5C179.035 76.0331 179.467 76.4652 180 76.4652Z" fill="#4F279B"/>
<path d="M4.36902e-05 91.4652C0.533071 91.4652 0.965175 91.0331 0.965175 90.5C0.965175 89.967 0.533071 89.5349 4.36902e-05 89.5349C-0.532984 89.5349 -0.965088 89.967 -0.965088 90.5C-0.965088 91.0331 -0.532984 91.4652 4.36902e-05 91.4652Z" fill="#4F279B"/>
<path d="M15 91.4652C15.5331 91.4652 15.9652 91.0331 15.9652 90.5C15.9652 89.967 15.5331 89.5349 15 89.5349C14.467 89.5349 14.0349 89.967 14.0349 90.5C14.0349 91.0331 14.467 91.4652 15 91.4652Z" fill="#4F279B"/>
<path d="M30 91.4652C30.5331 91.4652 30.9652 91.0331 30.9652 90.5C30.9652 89.967 30.5331 89.5349 30 89.5349C29.467 89.5349 29.0349 89.967 29.0349 90.5C29.0349 91.0331 29.467 91.4652 30 91.4652Z" fill="#4F279B"/>
<path d="M45 91.4652C45.5331 91.4652 45.9652 91.0331 45.9652 90.5C45.9652 89.967 45.5331 89.5349 45 89.5349C44.467 89.5349 44.0349 89.967 44.0349 90.5C44.0349 91.0331 44.467 91.4652 45 91.4652Z" fill="#4F279B"/>
<path d="M60 91.4652C60.5331 91.4652 60.9652 91.0331 60.9652 90.5C60.9652 89.967 60.5331 89.5349 60 89.5349C59.467 89.5349 59.0349 89.967 59.0349 90.5C59.0349 91.0331 59.467 91.4652 60 91.4652Z" fill="#4F279B"/>
<path d="M75 91.4652C75.5331 91.4652 75.9652 91.0331 75.9652 90.5C75.9652 89.967 75.5331 89.5349 75 89.5349C74.467 89.5349 74.0349 89.967 74.0349 90.5C74.0349 91.0331 74.467 91.4652 75 91.4652Z" fill="#4F279B"/>
<path d="M90 91.4652C90.5331 91.4652 90.9652 91.0331 90.9652 90.5C90.9652 89.967 90.5331 89.5349 90 89.5349C89.467 89.5349 89.0349 89.967 89.0349 90.5C89.0349 91.0331 89.467 91.4652 90 91.4652Z" fill="#4F279B"/>
<path d="M105 91.4652C105.533 91.4652 105.965 91.0331 105.965 90.5C105.965 89.967 105.533 89.5349 105 89.5349C104.467 89.5349 104.035 89.967 104.035 90.5C104.035 91.0331 104.467 91.4652 105 91.4652Z" fill="#4F279B"/>
<path d="M120 91.4652C120.533 91.4652 120.965 91.0331 120.965 90.5C120.965 89.967 120.533 89.5349 120 89.5349C119.467 89.5349 119.035 89.967 119.035 90.5C119.035 91.0331 119.467 91.4652 120 91.4652Z" fill="#4F279B"/>
<path d="M135 91.4652C135.533 91.4652 135.965 91.0331 135.965 90.5C135.965 89.967 135.533 89.5349 135 89.5349C134.467 89.5349 134.035 89.967 134.035 90.5C134.035 91.0331 134.467 91.4652 135 91.4652Z" fill="#4F279B"/>
<path d="M150 91.4652C150.533 91.4652 150.965 91.0331 150.965 90.5C150.965 89.967 150.533 89.5349 150 89.5349C149.467 89.5349 149.035 89.967 149.035 90.5C149.035 91.0331 149.467 91.4652 150 91.4652Z" fill="#4F279B"/>
<path d="M165 91.4652C165.533 91.4652 165.965 91.0331 165.965 90.5C165.965 89.967 165.533 89.5349 165 89.5349C164.467 89.5349 164.035 89.967 164.035 90.5C164.035 91.0331 164.467 91.4652 165 91.4652Z" fill="#4F279B"/>
<path d="M180 91.4652C180.533 91.4652 180.965 91.0331 180.965 90.5C180.965 89.967 180.533 89.5349 180 89.5349C179.467 89.5349 179.035 89.967 179.035 90.5C179.035 91.0331 179.467 91.4652 180 91.4652Z" fill="#4F279B"/>
<path d="M4.36902e-05 106.465C0.533071 106.465 0.965175 106.033 0.965175 105.5C0.965175 104.967 0.533071 104.535 4.36902e-05 104.535C-0.532984 104.535 -0.965088 104.967 -0.965088 105.5C-0.965088 106.033 -0.532984 106.465 4.36902e-05 106.465Z" fill="#4F279B"/>
<path d="M15 106.465C15.5331 106.465 15.9652 106.033 15.9652 105.5C15.9652 104.967 15.5331 104.535 15 104.535C14.467 104.535 14.0349 104.967 14.0349 105.5C14.0349 106.033 14.467 106.465 15 106.465Z" fill="#4F279B"/>
<path d="M30 106.465C30.5331 106.465 30.9652 106.033 30.9652 105.5C30.9652 104.967 30.5331 104.535 30 104.535C29.467 104.535 29.0349 104.967 29.0349 105.5C29.0349 106.033 29.467 106.465 30 106.465Z" fill="#4F279B"/>
<path d="M45 106.465C45.5331 106.465 45.9652 106.033 45.9652 105.5C45.9652 104.967 45.5331 104.535 45 104.535C44.467 104.535 44.0349 104.967 44.0349 105.5C44.0349 106.033 44.467 106.465 45 106.465Z" fill="#4F279B"/>
<path d="M60 106.465C60.5331 106.465 60.9652 106.033 60.9652 105.5C60.9652 104.967 60.5331 104.535 60 104.535C59.467 104.535 59.0349 104.967 59.0349 105.5C59.0349 106.033 59.467 106.465 60 106.465Z" fill="#4F279B"/>
<path d="M75 106.465C75.5331 106.465 75.9652 106.033 75.9652 105.5C75.9652 104.967 75.5331 104.535 75 104.535C74.467 104.535 74.0349 104.967 74.0349 105.5C74.0349 106.033 74.467 106.465 75 106.465Z" fill="#4F279B"/>
<path d="M90 106.465C90.5331 106.465 90.9652 106.033 90.9652 105.5C90.9652 104.967 90.5331 104.535 90 104.535C89.467 104.535 89.0349 104.967 89.0349 105.5C89.0349 106.033 89.467 106.465 90 106.465Z" fill="#4F279B"/>
<path d="M105 106.465C105.533 106.465 105.965 106.033 105.965 105.5C105.965 104.967 105.533 104.535 105 104.535C104.467 104.535 104.035 104.967 104.035 105.5C104.035 106.033 104.467 106.465 105 106.465Z" fill="#4F279B"/>
<path d="M120 106.465C120.533 106.465 120.965 106.033 120.965 105.5C120.965 104.967 120.533 104.535 120 104.535C119.467 104.535 119.035 104.967 119.035 105.5C119.035 106.033 119.467 106.465 120 106.465Z" fill="#4F279B"/>
<path d="M135 106.465C135.533 106.465 135.965 106.033 135.965 105.5C135.965 104.967 135.533 104.535 135 104.535C134.467 104.535 134.035 104.967 134.035 105.5C134.035 106.033 134.467 106.465 135 106.465Z" fill="#4F279B"/>
<path d="M150 106.465C150.533 106.465 150.965 106.033 150.965 105.5C150.965 104.967 150.533 104.535 150 104.535C149.467 104.535 149.035 104.967 149.035 105.5C149.035 106.033 149.467 106.465 150 106.465Z" fill="#4F279B"/>
<path d="M165 106.465C165.533 106.465 165.965 106.033 165.965 105.5C165.965 104.967 165.533 104.535 165 104.535C164.467 104.535 164.035 104.967 164.035 105.5C164.035 106.033 164.467 106.465 165 106.465Z" fill="#4F279B"/>
<path d="M180 106.465C180.533 106.465 180.965 106.033 180.965 105.5C180.965 104.967 180.533 104.535 180 104.535C179.467 104.535 179.035 104.967 179.035 105.5C179.035 106.033 179.467 106.465 180 106.465Z" fill="#4F279B"/>
<path d="M4.36902e-05 121.465C0.533071 121.465 0.965175 121.033 0.965175 120.5C0.965175 119.967 0.533071 119.535 4.36902e-05 119.535C-0.532984 119.535 -0.965088 119.967 -0.965088 120.5C-0.965088 121.033 -0.532984 121.465 4.36902e-05 121.465Z" fill="#4F279B"/>
<path d="M15 121.465C15.5331 121.465 15.9652 121.033 15.9652 120.5C15.9652 119.967 15.5331 119.535 15 119.535C14.467 119.535 14.0349 119.967 14.0349 120.5C14.0349 121.033 14.467 121.465 15 121.465Z" fill="#4F279B"/>
<path d="M30 121.465C30.5331 121.465 30.9652 121.033 30.9652 120.5C30.9652 119.967 30.5331 119.535 30 119.535C29.467 119.535 29.0349 119.967 29.0349 120.5C29.0349 121.033 29.467 121.465 30 121.465Z" fill="#4F279B"/>
<path d="M45 121.465C45.5331 121.465 45.9652 121.033 45.9652 120.5C45.9652 119.967 45.5331 119.535 45 119.535C44.467 119.535 44.0349 119.967 44.0349 120.5C44.0349 121.033 44.467 121.465 45 121.465Z" fill="#4F279B"/>
<path d="M60 121.465C60.5331 121.465 60.9652 121.033 60.9652 120.5C60.9652 119.967 60.5331 119.535 60 119.535C59.467 119.535 59.0349 119.967 59.0349 120.5C59.0349 121.033 59.467 121.465 60 121.465Z" fill="#4F279B"/>
<path d="M75 121.465C75.5331 121.465 75.9652 121.033 75.9652 120.5C75.9652 119.967 75.5331 119.535 75 119.535C74.467 119.535 74.0349 119.967 74.0349 120.5C74.0349 121.033 74.467 121.465 75 121.465Z" fill="#4F279B"/>
<path d="M90 121.465C90.5331 121.465 90.9652 121.033 90.9652 120.5C90.9652 119.967 90.5331 119.535 90 119.535C89.467 119.535 89.0349 119.967 89.0349 120.5C89.0349 121.033 89.467 121.465 90 121.465Z" fill="#4F279B"/>
<path d="M105 121.465C105.533 121.465 105.965 121.033 105.965 120.5C105.965 119.967 105.533 119.535 105 119.535C104.467 119.535 104.035 119.967 104.035 120.5C104.035 121.033 104.467 121.465 105 121.465Z" fill="#4F279B"/>
<path d="M120 121.465C120.533 121.465 120.965 121.033 120.965 120.5C120.965 119.967 120.533 119.535 120 119.535C119.467 119.535 119.035 119.967 119.035 120.5C119.035 121.033 119.467 121.465 120 121.465Z" fill="#4F279B"/>
<path d="M135 121.465C135.533 121.465 135.965 121.033 135.965 120.5C135.965 119.967 135.533 119.535 135 119.535C134.467 119.535 134.035 119.967 134.035 120.5C134.035 121.033 134.467 121.465 135 121.465Z" fill="#4F279B"/>
<path d="M150 121.465C150.533 121.465 150.965 121.033 150.965 120.5C150.965 119.967 150.533 119.535 150 119.535C149.467 119.535 149.035 119.967 149.035 120.5C149.035 121.033 149.467 121.465 150 121.465Z" fill="#4F279B"/>
<path d="M165 121.465C165.533 121.465 165.965 121.033 165.965 120.5C165.965 119.967 165.533 119.535 165 119.535C164.467 119.535 164.035 119.967 164.035 120.5C164.035 121.033 164.467 121.465 165 121.465Z" fill="#4F279B"/>
<path d="M180 121.465C180.533 121.465 180.965 121.033 180.965 120.5C180.965 119.967 180.533 119.535 180 119.535C179.467 119.535 179.035 119.967 179.035 120.5C179.035 121.033 179.467 121.465 180 121.465Z" fill="#4F279B"/>
<path d="M4.36902e-05 136.465C0.533071 136.465 0.965175 136.033 0.965175 135.5C0.965175 134.967 0.533071 134.535 4.36902e-05 134.535C-0.532984 134.535 -0.965088 134.967 -0.965088 135.5C-0.965088 136.033 -0.532984 136.465 4.36902e-05 136.465Z" fill="#4F279B"/>
<path d="M15 136.465C15.5331 136.465 15.9652 136.033 15.9652 135.5C15.9652 134.967 15.5331 134.535 15 134.535C14.467 134.535 14.0349 134.967 14.0349 135.5C14.0349 136.033 14.467 136.465 15 136.465Z" fill="#4F279B"/>
<path d="M30 136.465C30.5331 136.465 30.9652 136.033 30.9652 135.5C30.9652 134.967 30.5331 134.535 30 134.535C29.467 134.535 29.0349 134.967 29.0349 135.5C29.0349 136.033 29.467 136.465 30 136.465Z" fill="#4F279B"/>
<path d="M45 136.465C45.5331 136.465 45.9652 136.033 45.9652 135.5C45.9652 134.967 45.5331 134.535 45 134.535C44.467 134.535 44.0349 134.967 44.0349 135.5C44.0349 136.033 44.467 136.465 45 136.465Z" fill="#4F279B"/>
<path d="M60 136.465C60.5331 136.465 60.9652 136.033 60.9652 135.5C60.9652 134.967 60.5331 134.535 60 134.535C59.467 134.535 59.0349 134.967 59.0349 135.5C59.0349 136.033 59.467 136.465 60 136.465Z" fill="#4F279B"/>
<path d="M75 136.465C75.5331 136.465 75.9652 136.033 75.9652 135.5C75.9652 134.967 75.5331 134.535 75 134.535C74.467 134.535 74.0349 134.967 74.0349 135.5C74.0349 136.033 74.467 136.465 75 136.465Z" fill="#4F279B"/>
<path d="M90 136.465C90.5331 136.465 90.9652 136.033 90.9652 135.5C90.9652 134.967 90.5331 134.535 90 134.535C89.467 134.535 89.0349 134.967 89.0349 135.5C89.0349 136.033 89.467 136.465 90 136.465Z" fill="#4F279B"/>
<path d="M105 136.465C105.533 136.465 105.965 136.033 105.965 135.5C105.965 134.967 105.533 134.535 105 134.535C104.467 134.535 104.035 134.967 104.035 135.5C104.035 136.033 104.467 136.465 105 136.465Z" fill="#4F279B"/>
<path d="M120 136.465C120.533 136.465 120.965 136.033 120.965 135.5C120.965 134.967 120.533 134.535 120 134.535C119.467 134.535 119.035 134.967 119.035 135.5C119.035 136.033 119.467 136.465 120 136.465Z" fill="#4F279B"/>
<path d="M135 136.465C135.533 136.465 135.965 136.033 135.965 135.5C135.965 134.967 135.533 134.535 135 134.535C134.467 134.535 134.035 134.967 134.035 135.5C134.035 136.033 134.467 136.465 135 136.465Z" fill="#4F279B"/>
<path d="M150 136.465C150.533 136.465 150.965 136.033 150.965 135.5C150.965 134.967 150.533 134.535 150 134.535C149.467 134.535 149.035 134.967 149.035 135.5C149.035 136.033 149.467 136.465 150 136.465Z" fill="#4F279B"/>
<path d="M165 136.465C165.533 136.465 165.965 136.033 165.965 135.5C165.965 134.967 165.533 134.535 165 134.535C164.467 134.535 164.035 134.967 164.035 135.5C164.035 136.033 164.467 136.465 165 136.465Z" fill="#4F279B"/>
<path d="M180 136.465C180.533 136.465 180.965 136.033 180.965 135.5C180.965 134.967 180.533 134.535 180 134.535C179.467 134.535 179.035 134.967 179.035 135.5C179.035 136.033 179.467 136.465 180 136.465Z" fill="#4F279B"/>
<path d="M4.36902e-05 151.465C0.533071 151.465 0.965175 151.033 0.965175 150.5C0.965175 149.967 0.533071 149.535 4.36902e-05 149.535C-0.532984 149.535 -0.965088 149.967 -0.965088 150.5C-0.965088 151.033 -0.532984 151.465 4.36902e-05 151.465Z" fill="#4F279B"/>
<path d="M15 151.465C15.5331 151.465 15.9652 151.033 15.9652 150.5C15.9652 149.967 15.5331 149.535 15 149.535C14.467 149.535 14.0349 149.967 14.0349 150.5C14.0349 151.033 14.467 151.465 15 151.465Z" fill="#4F279B"/>
<path d="M30 151.465C30.5331 151.465 30.9652 151.033 30.9652 150.5C30.9652 149.967 30.5331 149.535 30 149.535C29.467 149.535 29.0349 149.967 29.0349 150.5C29.0349 151.033 29.467 151.465 30 151.465Z" fill="#4F279B"/>
<path d="M45 151.465C45.5331 151.465 45.9652 151.033 45.9652 150.5C45.9652 149.967 45.5331 149.535 45 149.535C44.467 149.535 44.0349 149.967 44.0349 150.5C44.0349 151.033 44.467 151.465 45 151.465Z" fill="#4F279B"/>
<path d="M60 151.465C60.5331 151.465 60.9652 151.033 60.9652 150.5C60.9652 149.967 60.5331 149.535 60 149.535C59.467 149.535 59.0349 149.967 59.0349 150.5C59.0349 151.033 59.467 151.465 60 151.465Z" fill="#4F279B"/>
<path d="M75 151.465C75.5331 151.465 75.9652 151.033 75.9652 150.5C75.9652 149.967 75.5331 149.535 75 149.535C74.467 149.535 74.0349 149.967 74.0349 150.5C74.0349 151.033 74.467 151.465 75 151.465Z" fill="#4F279B"/>
<path d="M90 151.465C90.5331 151.465 90.9652 151.033 90.9652 150.5C90.9652 149.967 90.5331 149.535 90 149.535C89.467 149.535 89.0349 149.967 89.0349 150.5C89.0349 151.033 89.467 151.465 90 151.465Z" fill="#4F279B"/>
<path d="M105 151.465C105.533 151.465 105.965 151.033 105.965 150.5C105.965 149.967 105.533 149.535 105 149.535C104.467 149.535 104.035 149.967 104.035 150.5C104.035 151.033 104.467 151.465 105 151.465Z" fill="#4F279B"/>
<path d="M120 151.465C120.533 151.465 120.965 151.033 120.965 150.5C120.965 149.967 120.533 149.535 120 149.535C119.467 149.535 119.035 149.967 119.035 150.5C119.035 151.033 119.467 151.465 120 151.465Z" fill="#4F279B"/>
<path d="M135 151.465C135.533 151.465 135.965 151.033 135.965 150.5C135.965 149.967 135.533 149.535 135 149.535C134.467 149.535 134.035 149.967 134.035 150.5C134.035 151.033 134.467 151.465 135 151.465Z" fill="#4F279B"/>
<path d="M150 151.465C150.533 151.465 150.965 151.033 150.965 150.5C150.965 149.967 150.533 149.535 150 149.535C149.467 149.535 149.035 149.967 149.035 150.5C149.035 151.033 149.467 151.465 150 151.465Z" fill="#4F279B"/>
<path d="M165 151.465C165.533 151.465 165.965 151.033 165.965 150.5C165.965 149.967 165.533 149.535 165 149.535C164.467 149.535 164.035 149.967 164.035 150.5C164.035 151.033 164.467 151.465 165 151.465Z" fill="#4F279B"/>
<path d="M180 151.465C180.533 151.465 180.965 151.033 180.965 150.5C180.965 149.967 180.533 149.535 180 149.535C179.467 149.535 179.035 149.967 179.035 150.5C179.035 151.033 179.467 151.465 180 151.465Z" fill="#4F279B"/>
<path d="M4.36902e-05 166.465C0.533071 166.465 0.965175 166.033 0.965175 165.5C0.965175 164.967 0.533071 164.535 4.36902e-05 164.535C-0.532984 164.535 -0.965088 164.967 -0.965088 165.5C-0.965088 166.033 -0.532984 166.465 4.36902e-05 166.465Z" fill="#4F279B"/>
<path d="M15 166.465C15.5331 166.465 15.9652 166.033 15.9652 165.5C15.9652 164.967 15.5331 164.535 15 164.535C14.467 164.535 14.0349 164.967 14.0349 165.5C14.0349 166.033 14.467 166.465 15 166.465Z" fill="#4F279B"/>
<path d="M30 166.465C30.5331 166.465 30.9652 166.033 30.9652 165.5C30.9652 164.967 30.5331 164.535 30 164.535C29.467 164.535 29.0349 164.967 29.0349 165.5C29.0349 166.033 29.467 166.465 30 166.465Z" fill="#4F279B"/>
<path d="M45 166.465C45.5331 166.465 45.9652 166.033 45.9652 165.5C45.9652 164.967 45.5331 164.535 45 164.535C44.467 164.535 44.0349 164.967 44.0349 165.5C44.0349 166.033 44.467 166.465 45 166.465Z" fill="#4F279B"/>
<path d="M60 166.465C60.5331 166.465 60.9652 166.033 60.9652 165.5C60.9652 164.967 60.5331 164.535 60 164.535C59.467 164.535 59.0349 164.967 59.0349 165.5C59.0349 166.033 59.467 166.465 60 166.465Z" fill="#4F279B"/>
<path d="M75 166.465C75.5331 166.465 75.9652 166.033 75.9652 165.5C75.9652 164.967 75.5331 164.535 75 164.535C74.467 164.535 74.0349 164.967 74.0349 165.5C74.0349 166.033 74.467 166.465 75 166.465Z" fill="#4F279B"/>
<path d="M90 166.465C90.5331 166.465 90.9652 166.033 90.9652 165.5C90.9652 164.967 90.5331 164.535 90 164.535C89.467 164.535 89.0349 164.967 89.0349 165.5C89.0349 166.033 89.467 166.465 90 166.465Z" fill="#4F279B"/>
<path d="M105 166.465C105.533 166.465 105.965 166.033 105.965 165.5C105.965 164.967 105.533 164.535 105 164.535C104.467 164.535 104.035 164.967 104.035 165.5C104.035 166.033 104.467 166.465 105 166.465Z" fill="#4F279B"/>
<path d="M120 166.465C120.533 166.465 120.965 166.033 120.965 165.5C120.965 164.967 120.533 164.535 120 164.535C119.467 164.535 119.035 164.967 119.035 165.5C119.035 166.033 119.467 166.465 120 166.465Z" fill="#4F279B"/>
<path d="M135 166.465C135.533 166.465 135.965 166.033 135.965 165.5C135.965 164.967 135.533 164.535 135 164.535C134.467 164.535 134.035 164.967 134.035 165.5C134.035 166.033 134.467 166.465 135 166.465Z" fill="#4F279B"/>
<path d="M150 166.465C150.533 166.465 150.965 166.033 150.965 165.5C150.965 164.967 150.533 164.535 150 164.535C149.467 164.535 149.035 164.967 149.035 165.5C149.035 166.033 149.467 166.465 150 166.465Z" fill="#4F279B"/>
<path d="M165 166.465C165.533 166.465 165.965 166.033 165.965 165.5C165.965 164.967 165.533 164.535 165 164.535C164.467 164.535 164.035 164.967 164.035 165.5C164.035 166.033 164.467 166.465 165 166.465Z" fill="#4F279B"/>
<path d="M180 166.465C180.533 166.465 180.965 166.033 180.965 165.5C180.965 164.967 180.533 164.535 180 164.535C179.467 164.535 179.035 164.967 179.035 165.5C179.035 166.033 179.467 166.465 180 166.465Z" fill="#4F279B"/>
<path d="M4.36902e-05 181.465C0.533071 181.465 0.965175 181.033 0.965175 180.5C0.965175 179.967 0.533071 179.535 4.36902e-05 179.535C-0.532984 179.535 -0.965088 179.967 -0.965088 180.5C-0.965088 181.033 -0.532984 181.465 4.36902e-05 181.465Z" fill="#4F279B"/>
<path d="M15 181.465C15.5331 181.465 15.9652 181.033 15.9652 180.5C15.9652 179.967 15.5331 179.535 15 179.535C14.467 179.535 14.0349 179.967 14.0349 180.5C14.0349 181.033 14.467 181.465 15 181.465Z" fill="#4F279B"/>
<path d="M30 181.465C30.5331 181.465 30.9652 181.033 30.9652 180.5C30.9652 179.967 30.5331 179.535 30 179.535C29.467 179.535 29.0349 179.967 29.0349 180.5C29.0349 181.033 29.467 181.465 30 181.465Z" fill="#4F279B"/>
<path d="M45 181.465C45.5331 181.465 45.9652 181.033 45.9652 180.5C45.9652 179.967 45.5331 179.535 45 179.535C44.467 179.535 44.0349 179.967 44.0349 180.5C44.0349 181.033 44.467 181.465 45 181.465Z" fill="#4F279B"/>
<path d="M60 181.465C60.5331 181.465 60.9652 181.033 60.9652 180.5C60.9652 179.967 60.5331 179.535 60 179.535C59.467 179.535 59.0349 179.967 59.0349 180.5C59.0349 181.033 59.467 181.465 60 181.465Z" fill="#4F279B"/>
<path d="M75 181.465C75.5331 181.465 75.9652 181.033 75.9652 180.5C75.9652 179.967 75.5331 179.535 75 179.535C74.467 179.535 74.0349 179.967 74.0349 180.5C74.0349 181.033 74.467 181.465 75 181.465Z" fill="#4F279B"/>
<path d="M90 181.465C90.5331 181.465 90.9652 181.033 90.9652 180.5C90.9652 179.967 90.5331 179.535 90 179.535C89.467 179.535 89.0349 179.967 89.0349 180.5C89.0349 181.033 89.467 181.465 90 181.465Z" fill="#4F279B"/>
<path d="M105 181.465C105.533 181.465 105.965 181.033 105.965 180.5C105.965 179.967 105.533 179.535 105 179.535C104.467 179.535 104.035 179.967 104.035 180.5C104.035 181.033 104.467 181.465 105 181.465Z" fill="#4F279B"/>
<path d="M120 181.465C120.533 181.465 120.965 181.033 120.965 180.5C120.965 179.967 120.533 179.535 120 179.535C119.467 179.535 119.035 179.967 119.035 180.5C119.035 181.033 119.467 181.465 120 181.465Z" fill="#4F279B"/>
<path d="M135 181.465C135.533 181.465 135.965 181.033 135.965 180.5C135.965 179.967 135.533 179.535 135 179.535C134.467 179.535 134.035 179.967 134.035 180.5C134.035 181.033 134.467 181.465 135 181.465Z" fill="#4F279B"/>
<path d="M150 181.465C150.533 181.465 150.965 181.033 150.965 180.5C150.965 179.967 150.533 179.535 150 179.535C149.467 179.535 149.035 179.967 149.035 180.5C149.035 181.033 149.467 181.465 150 181.465Z" fill="#4F279B"/>
<path d="M165 181.465C165.533 181.465 165.965 181.033 165.965 180.5C165.965 179.967 165.533 179.535 165 179.535C164.467 179.535 164.035 179.967 164.035 180.5C164.035 181.033 164.467 181.465 165 181.465Z" fill="#4F279B"/>
<path d="M180 181.465C180.533 181.465 180.965 181.033 180.965 180.5C180.965 179.967 180.533 179.535 180 179.535C179.467 179.535 179.035 179.967 179.035 180.5C179.035 181.033 179.467 181.465 180 181.465Z" fill="#4F279B"/>
</g>
<defs>
<clipPath id="clip0_75_214">
<rect width="180" height="180" fill="white" transform="translate(0 0.5)"/>
</clipPath>
</defs>
</svg>
